<mxfile host="app.diagrams.net" modified="2023-10-23T04:32:48.458Z" agent="Mozilla/5.0 (Windows NT 10.0; Win64; x64) AppleWebKit/537.36 (KHTML, like Gecko) Chrome/118.0.0.0 Safari/537.36 Edg/118.0.2088.61" etag="Wd6zff5-zPxz9HEs_7_K" version="22.0.6" type="google">
  <diagram name="Page-1" id="GdGxYZmirZRgzzBKeKEi">
    <mxGraphModel grid="1" page="1" gridSize="10" guides="1" tooltips="1" connect="1" arrows="1" fold="1" pageScale="1" pageWidth="850" pageHeight="1100" math="0" shadow="0">
      <root>
        <mxCell id="0" />
        <mxCell id="1" parent="0" />
        <mxCell id="QVHacSZLvYC3Rlmj2cZm-4" value="Communication Diagram: Operation: addNewSensor(isDeployed, locationID)" style="shape=umlFrame;whiteSpace=wrap;html=1;pointerEvents=0;width=230;height=50;" vertex="1" parent="1">
          <mxGeometry x="20" y="460" width="760" height="430" as="geometry" />
        </mxCell>
        <mxCell id="QVHacSZLvYC3Rlmj2cZm-34" style="edgeStyle=orthogonalEdgeStyle;rounded=0;orthogonalLoop=1;jettySize=auto;html=1;entryX=0.5;entryY=0;entryDx=0;entryDy=0;endArrow=none;endFill=0;" edge="1" parent="1" source="QVHacSZLvYC3Rlmj2cZm-30" target="QVHacSZLvYC3Rlmj2cZm-31">
          <mxGeometry relative="1" as="geometry" />
        </mxCell>
        <mxCell id="QVHacSZLvYC3Rlmj2cZm-38" value="2.2: &lt;b&gt;&lt;u&gt;addItem&lt;/u&gt;&lt;/b&gt;(s)" style="edgeLabel;html=1;align=center;verticalAlign=middle;resizable=0;points=[];" connectable="0" vertex="1" parent="QVHacSZLvYC3Rlmj2cZm-34">
          <mxGeometry x="0.7316" y="-2" relative="1" as="geometry">
            <mxPoint x="27" y="-41" as="offset" />
          </mxGeometry>
        </mxCell>
        <mxCell id="QVHacSZLvYC3Rlmj2cZm-35" style="edgeStyle=orthogonalEdgeStyle;rounded=0;orthogonalLoop=1;jettySize=auto;html=1;exitX=0.5;exitY=1;exitDx=0;exitDy=0;entryX=0.5;entryY=0;entryDx=0;entryDy=0;endArrow=none;endFill=0;" edge="1" parent="1" source="QVHacSZLvYC3Rlmj2cZm-30" target="QVHacSZLvYC3Rlmj2cZm-32">
          <mxGeometry relative="1" as="geometry" />
        </mxCell>
        <mxCell id="QVHacSZLvYC3Rlmj2cZm-39" value="s := &lt;b&gt;&lt;u&gt;create&lt;/u&gt;&lt;/b&gt;(isDeployed, location)" style="edgeLabel;html=1;align=center;verticalAlign=middle;resizable=0;points=[];" connectable="0" vertex="1" parent="QVHacSZLvYC3Rlmj2cZm-35">
          <mxGeometry x="0.6783" y="2" relative="1" as="geometry">
            <mxPoint x="-2" y="-36" as="offset" />
          </mxGeometry>
        </mxCell>
        <mxCell id="QVHacSZLvYC3Rlmj2cZm-30" value="&lt;u&gt;:SensorRegistry&lt;/u&gt;" style="html=1;whiteSpace=wrap;" vertex="1" parent="1">
          <mxGeometry x="530" y="550" width="110" height="40" as="geometry" />
        </mxCell>
        <mxCell id="QVHacSZLvYC3Rlmj2cZm-32" value="&lt;u&gt;:Sensor&lt;/u&gt;" style="html=1;whiteSpace=wrap;" vertex="1" parent="1">
          <mxGeometry x="620" y="710" width="120" height="40" as="geometry" />
        </mxCell>
        <mxCell id="QVHacSZLvYC3Rlmj2cZm-36" value="" style="group" connectable="0" vertex="1" parent="1">
          <mxGeometry x="420" y="710" width="120" height="50" as="geometry" />
        </mxCell>
        <mxCell id="QVHacSZLvYC3Rlmj2cZm-31" value=":Sensor" style="html=1;whiteSpace=wrap;" vertex="1" parent="QVHacSZLvYC3Rlmj2cZm-36">
          <mxGeometry x="10" width="110" height="41.66666666666667" as="geometry" />
        </mxCell>
        <mxCell id="QVHacSZLvYC3Rlmj2cZm-33" value="&lt;u&gt;:Sensor&lt;/u&gt;" style="html=1;whiteSpace=wrap;" vertex="1" parent="QVHacSZLvYC3Rlmj2cZm-36">
          <mxGeometry y="8.333333333333336" width="110" height="41.66666666666667" as="geometry" />
        </mxCell>
        <mxCell id="QVHacSZLvYC3Rlmj2cZm-40" value="&lt;font style=&quot;font-size: 10px;&quot;&gt;By Creator&lt;/font&gt;" style="shape=note;size=7;align=left;spacingLeft=10;html=1;whiteSpace=wrap;" vertex="1" parent="1">
          <mxGeometry x="665" y="590" width="75" height="20" as="geometry" />
        </mxCell>
        <mxCell id="QVHacSZLvYC3Rlmj2cZm-41" value="" style="edgeStyle=none;endArrow=none;exitX=0;exitY=1;dashed=1;html=1;rounded=0;exitDx=0;exitDy=0;exitPerimeter=0;" edge="1" parent="1" source="QVHacSZLvYC3Rlmj2cZm-40">
          <mxGeometry x="1" relative="1" as="geometry">
            <mxPoint x="640" y="630" as="targetPoint" />
          </mxGeometry>
        </mxCell>
        <mxCell id="QVHacSZLvYC3Rlmj2cZm-44" style="edgeStyle=orthogonalEdgeStyle;rounded=0;orthogonalLoop=1;jettySize=auto;html=1;entryX=0;entryY=0.5;entryDx=0;entryDy=0;endArrow=none;endFill=0;" edge="1" parent="1" source="QVHacSZLvYC3Rlmj2cZm-43" target="QVHacSZLvYC3Rlmj2cZm-30">
          <mxGeometry relative="1" as="geometry" />
        </mxCell>
        <mxCell id="QVHacSZLvYC3Rlmj2cZm-71" value="2: addSensor(isDeployed, location)" style="edgeLabel;html=1;align=center;verticalAlign=middle;resizable=0;points=[];" connectable="0" vertex="1" parent="QVHacSZLvYC3Rlmj2cZm-44">
          <mxGeometry x="-0.3356" y="1" relative="1" as="geometry">
            <mxPoint x="27" y="-9" as="offset" />
          </mxGeometry>
        </mxCell>
        <mxCell id="QVHacSZLvYC3Rlmj2cZm-50" style="edgeStyle=orthogonalEdgeStyle;rounded=0;orthogonalLoop=1;jettySize=auto;html=1;entryX=0.5;entryY=0;entryDx=0;entryDy=0;endArrow=none;endFill=0;" edge="1" parent="1" source="QVHacSZLvYC3Rlmj2cZm-43" target="QVHacSZLvYC3Rlmj2cZm-49">
          <mxGeometry relative="1" as="geometry" />
        </mxCell>
        <mxCell id="QVHacSZLvYC3Rlmj2cZm-51" value="[isDeployed AND locationID &amp;lt;&amp;gt; NULL]&lt;br&gt;1: location := findLocation(locationID)" style="edgeLabel;html=1;align=center;verticalAlign=middle;resizable=0;points=[];" connectable="0" vertex="1" parent="QVHacSZLvYC3Rlmj2cZm-50">
          <mxGeometry x="-0.1456" y="2" relative="1" as="geometry">
            <mxPoint x="93" y="-23" as="offset" />
          </mxGeometry>
        </mxCell>
        <mxCell id="QVHacSZLvYC3Rlmj2cZm-43" value="&lt;u&gt;:Console&lt;/u&gt;" style="html=1;whiteSpace=wrap;" vertex="1" parent="1">
          <mxGeometry x="230" y="550" width="110" height="40" as="geometry" />
        </mxCell>
        <mxCell id="QVHacSZLvYC3Rlmj2cZm-46" value="" style="endArrow=none;html=1;rounded=0;entryX=0;entryY=0.5;entryDx=0;entryDy=0;endFill=0;" edge="1" parent="1" target="QVHacSZLvYC3Rlmj2cZm-43">
          <mxGeometry width="50" height="50" relative="1" as="geometry">
            <mxPoint x="40" y="570" as="sourcePoint" />
            <mxPoint x="464.45" y="580" as="targetPoint" />
          </mxGeometry>
        </mxCell>
        <mxCell id="QVHacSZLvYC3Rlmj2cZm-47" value="addNewSensor(isDeployed, locationID)" style="edgeLabel;html=1;align=center;verticalAlign=middle;resizable=0;points=[];" connectable="0" vertex="1" parent="QVHacSZLvYC3Rlmj2cZm-46">
          <mxGeometry x="-0.0558" y="1" relative="1" as="geometry">
            <mxPoint x="-3" y="-9" as="offset" />
          </mxGeometry>
        </mxCell>
        <mxCell id="QVHacSZLvYC3Rlmj2cZm-64" style="edgeStyle=orthogonalEdgeStyle;rounded=0;orthogonalLoop=1;jettySize=auto;html=1;entryX=0.5;entryY=0;entryDx=0;entryDy=0;endArrow=none;endFill=0;" edge="1" parent="1" source="QVHacSZLvYC3Rlmj2cZm-49" target="QVHacSZLvYC3Rlmj2cZm-60">
          <mxGeometry relative="1" as="geometry" />
        </mxCell>
        <mxCell id="QVHacSZLvYC3Rlmj2cZm-67" value="1.1 loc = &lt;u style=&quot;font-weight: bold;&quot;&gt;findItem&lt;/u&gt;(locationID)" style="edgeLabel;html=1;align=center;verticalAlign=middle;resizable=0;points=[];" connectable="0" vertex="1" parent="QVHacSZLvYC3Rlmj2cZm-64">
          <mxGeometry x="-0.2526" y="1" relative="1" as="geometry">
            <mxPoint x="-68" y="7" as="offset" />
          </mxGeometry>
        </mxCell>
        <mxCell id="QVHacSZLvYC3Rlmj2cZm-49" value="&lt;u&gt;:LocationRegistry&lt;/u&gt;" style="html=1;whiteSpace=wrap;" vertex="1" parent="1">
          <mxGeometry x="230" y="690" width="110" height="40" as="geometry" />
        </mxCell>
        <mxCell id="QVHacSZLvYC3Rlmj2cZm-52" value="&lt;font style=&quot;font-size: 10px;&quot;&gt;By Controller&lt;/font&gt;" style="shape=note;size=7;align=left;spacingLeft=10;html=1;whiteSpace=wrap;" vertex="1" parent="1">
          <mxGeometry x="60" y="590" width="80" height="20" as="geometry" />
        </mxCell>
        <mxCell id="QVHacSZLvYC3Rlmj2cZm-54" value="" style="edgeStyle=none;endArrow=none;exitX=0;exitY=0;dashed=1;html=1;rounded=0;exitDx=0;exitDy=0;exitPerimeter=0;" edge="1" parent="1" source="QVHacSZLvYC3Rlmj2cZm-52">
          <mxGeometry x="1" relative="1" as="geometry">
            <mxPoint x="40" y="570" as="targetPoint" />
            <mxPoint x="210" y="520" as="sourcePoint" />
          </mxGeometry>
        </mxCell>
        <mxCell id="QVHacSZLvYC3Rlmj2cZm-55" value="&lt;font style=&quot;font-size: 10px;&quot;&gt;By Expert&lt;/font&gt;" style="shape=note;size=7;align=left;spacingLeft=10;html=1;whiteSpace=wrap;" vertex="1" parent="1">
          <mxGeometry x="310" y="640" width="80" height="20" as="geometry" />
        </mxCell>
        <mxCell id="QVHacSZLvYC3Rlmj2cZm-56" value="" style="edgeStyle=none;endArrow=none;dashed=1;html=1;rounded=0;entryX=0;entryY=0;entryDx=0;entryDy=0;entryPerimeter=0;" edge="1" parent="1" target="QVHacSZLvYC3Rlmj2cZm-55">
          <mxGeometry x="1" relative="1" as="geometry">
            <mxPoint x="70" y="580" as="targetPoint" />
            <mxPoint x="290" y="620" as="sourcePoint" />
          </mxGeometry>
        </mxCell>
        <mxCell id="QVHacSZLvYC3Rlmj2cZm-63" value="" style="group" connectable="0" vertex="1" parent="1">
          <mxGeometry x="220" y="790" width="120" height="50" as="geometry" />
        </mxCell>
        <mxCell id="QVHacSZLvYC3Rlmj2cZm-60" value="&lt;u&gt;:Sensor&lt;/u&gt;" style="html=1;whiteSpace=wrap;" vertex="1" parent="QVHacSZLvYC3Rlmj2cZm-63">
          <mxGeometry x="9.290082836571958" width="110.70991716342802" height="40" as="geometry" />
        </mxCell>
        <mxCell id="QVHacSZLvYC3Rlmj2cZm-59" value="&lt;u&gt;:Location&lt;/u&gt;" style="html=1;whiteSpace=wrap;" vertex="1" parent="QVHacSZLvYC3Rlmj2cZm-63">
          <mxGeometry y="10" width="110.70991716342802" height="40" as="geometry" />
        </mxCell>
        <mxCell id="QVHacSZLvYC3Rlmj2cZm-65" value="&lt;font style=&quot;font-size: 10px;&quot;&gt;By Expert&lt;/font&gt;" style="shape=note;size=7;align=left;spacingLeft=10;html=1;whiteSpace=wrap;" vertex="1" parent="1">
          <mxGeometry x="100" y="710" width="80" height="20" as="geometry" />
        </mxCell>
        <mxCell id="QVHacSZLvYC3Rlmj2cZm-68" value="" style="edgeStyle=none;endArrow=none;exitX=1;exitY=1;dashed=1;html=1;rounded=0;exitDx=0;exitDy=0;exitPerimeter=0;" edge="1" parent="1" source="QVHacSZLvYC3Rlmj2cZm-65">
          <mxGeometry x="1" relative="1" as="geometry">
            <mxPoint x="220" y="750" as="targetPoint" />
            <mxPoint x="90" y="600" as="sourcePoint" />
          </mxGeometry>
        </mxCell>
        <mxCell id="QVHacSZLvYC3Rlmj2cZm-69" value="" style="endArrow=block;html=1;rounded=0;endSize=3;endFill=1;exitX=0.178;exitY=0.188;exitDx=0;exitDy=0;exitPerimeter=0;" edge="1" parent="1">
          <mxGeometry width="50" height="50" relative="1" as="geometry">
            <mxPoint x="180.00000000000006" y="580.24" as="sourcePoint" />
            <mxPoint x="220.06" y="580" as="targetPoint" />
          </mxGeometry>
        </mxCell>
        <mxCell id="QVHacSZLvYC3Rlmj2cZm-70" value="" style="endArrow=block;html=1;rounded=0;endSize=3;endFill=1;exitX=0.178;exitY=0.188;exitDx=0;exitDy=0;exitPerimeter=0;" edge="1" parent="1">
          <mxGeometry width="50" height="50" relative="1" as="geometry">
            <mxPoint x="416.94000000000005" y="579.24" as="sourcePoint" />
            <mxPoint x="457" y="579" as="targetPoint" />
          </mxGeometry>
        </mxCell>
        <mxCell id="QVHacSZLvYC3Rlmj2cZm-72" value="" style="endArrow=block;html=1;rounded=0;endSize=3;endFill=1;exitX=0.178;exitY=0.188;exitDx=0;exitDy=0;exitPerimeter=0;" edge="1" parent="1">
          <mxGeometry width="50" height="50" relative="1" as="geometry">
            <mxPoint x="293.00000000000006" y="647" as="sourcePoint" />
            <mxPoint x="293.06" y="682.76" as="targetPoint" />
          </mxGeometry>
        </mxCell>
        <mxCell id="QVHacSZLvYC3Rlmj2cZm-73" value="" style="endArrow=block;html=1;rounded=0;endSize=3;endFill=1;exitX=0.178;exitY=0.188;exitDx=0;exitDy=0;exitPerimeter=0;" edge="1" parent="1">
          <mxGeometry width="50" height="50" relative="1" as="geometry">
            <mxPoint x="293.00000000000006" y="748" as="sourcePoint" />
            <mxPoint x="293.06" y="783.76" as="targetPoint" />
          </mxGeometry>
        </mxCell>
        <mxCell id="QVHacSZLvYC3Rlmj2cZm-75" value="" style="endArrow=block;html=1;rounded=0;endSize=3;endFill=1;exitX=0.178;exitY=0.188;exitDx=0;exitDy=0;exitPerimeter=0;" edge="1" parent="1">
          <mxGeometry width="50" height="50" relative="1" as="geometry">
            <mxPoint x="478.00000000000006" y="664" as="sourcePoint" />
            <mxPoint x="478.06" y="699.76" as="targetPoint" />
          </mxGeometry>
        </mxCell>
        <mxCell id="QVHacSZLvYC3Rlmj2cZm-76" value="" style="endArrow=block;html=1;rounded=0;endSize=3;endFill=1;exitX=0.178;exitY=0.188;exitDx=0;exitDy=0;exitPerimeter=0;" edge="1" parent="1">
          <mxGeometry width="50" height="50" relative="1" as="geometry">
            <mxPoint x="673" y="665" as="sourcePoint" />
            <mxPoint x="673.06" y="700.76" as="targetPoint" />
          </mxGeometry>
        </mxCell>
      </root>
    </mxGraphModel>
  </diagram>
</mxfile>
